<svg width="28" height="28" viewBox="0 0 28 28" fill="none" xmlns="http://www.w3.org/2000/svg">
<path d="M25.3088 26.0265L24.2322 27.071C24.5147 27.3622 24.9031 27.5265 25.3088 27.5265C25.7145 27.5265 26.1029 27.3622 26.3854 27.071L25.3088 26.0265ZM14.0025 14.3721L15.0792 13.3277C14.7967 13.0365 14.4083 12.8721 14.0025 12.8721C13.5968 12.8721 13.2084 13.0365 12.9259 13.3277L14.0025 14.3721ZM26.0051 25.3088L27.0817 26.3532C27.6462 25.7714 27.6462 24.8462 27.0817 24.2643L26.0051 25.3088ZM14.6989 13.6544L13.6222 12.6099C13.0577 13.1918 13.0577 14.117 13.6222 14.6989L14.6989 13.6544ZM25.3088 2.71775L26.3854 3.76221C26.9499 3.18032 26.9499 2.25519 26.3854 1.6733L25.3088 2.71775ZM24.6125 2.00001L25.6891 0.955552C25.4066 0.664354 25.0182 0.500009 24.6125 0.500009C24.2068 0.500009 23.8184 0.664353 23.5359 0.955551L24.6125 2.00001ZM14.0025 12.9367L12.9259 13.9811C13.2084 14.2723 13.5968 14.4367 14.0025 14.4367C14.4083 14.4367 14.7967 14.2723 15.0792 13.9811L14.0025 12.9367ZM3.39261 2L4.46923 0.955543C4.18673 0.664345 3.79832 0.5 3.39261 0.5C2.9869 0.5 2.59849 0.664345 2.31599 0.955543L3.39261 2ZM2.6963 2.71775L1.61969 1.67329C1.05518 2.25518 1.05518 3.18031 1.61969 3.7622L2.6963 2.71775ZM13.3062 13.6544L14.3829 14.6989C14.9474 14.117 14.9474 13.1918 14.3829 12.6099L13.3062 13.6544ZM2 25.3088L0.923381 24.2643C0.358873 24.8462 0.358873 25.7714 0.92338 26.3532L2 25.3088ZM2.6963 26.0265L1.61969 27.071C1.90218 27.3622 2.29059 27.5265 2.6963 27.5265C3.10202 27.5265 3.49043 27.3622 3.77292 27.071L2.6963 26.0265ZM26.3854 24.9821L15.0792 13.3277L12.9259 15.4166L24.2322 27.071L26.3854 24.9821ZM24.9285 24.2643L24.2322 24.9821L26.3854 27.071L27.0817 26.3532L24.9285 24.2643ZM13.6222 14.6989L24.9285 26.3532L27.0817 24.2643L15.7755 12.6099L13.6222 14.6989ZM24.2322 1.6733L13.6222 12.6099L15.7755 14.6989L26.3854 3.76221L24.2322 1.6733ZM23.5359 3.04447L24.2322 3.76221L26.3854 1.6733L25.6891 0.955552L23.5359 3.04447ZM15.0792 13.9811L25.6891 3.04447L23.5359 0.955551L12.9259 11.8922L15.0792 13.9811ZM2.31599 3.04446L12.9259 13.9811L15.0792 11.8922L4.46923 0.955543L2.31599 3.04446ZM3.77292 3.7622L4.46923 3.04446L2.31599 0.955543L1.61969 1.67329L3.77292 3.7622ZM14.3829 12.6099L3.77292 1.67329L1.61969 3.7622L12.2296 14.6989L14.3829 12.6099ZM3.07662 26.3532L14.3829 14.6989L12.2296 12.6099L0.923381 24.2643L3.07662 26.3532ZM3.77292 24.9821L3.07662 24.2643L0.92338 26.3532L1.61969 27.071L3.77292 24.9821ZM12.9259 13.3277L1.61969 24.9821L3.77292 27.071L15.0792 15.4166L12.9259 13.3277Z" fill="#6D787B"/>
</svg>
