<svg width="103" height="103" viewBox="0 0 103 103" fill="none" xmlns="http://www.w3.org/2000/svg">
<path fill-rule="evenodd" clip-rule="evenodd" d="M52.7469 100C80.3612 100 102.747 77.6142 102.747 50C102.747 22.3858 80.3612 0 52.7469 0C25.1327 0 2.74694 22.3858 2.74694 50C2.74694 59.8048 5.56914 68.9505 10.4455 76.669L0 102.83L26.1911 92.3728C33.8858 97.2053 42.99 100 52.7469 100Z" fill="#20C0FB"/>
<path d="M71.688 57.808C71.976 59.472 72.12 60.816 72.12 61.84C72.12 65.872 70.856 68.8 68.328 70.624C65.832 72.448 61.656 73.36 55.8 73.36C50.072 73.36 46.072 72.368 43.8 70.384C41.56 68.432 40.44 64.944 40.44 59.92C40.44 58.16 40.456 56.768 40.488 55.744C40.488 55.488 40.36 55.36 40.104 55.36H33.576C32.84 55.36 32.2 55.088 31.656 54.544C31.112 54 30.84 53.36 30.84 52.624V50.416C30.84 49.68 31.112 49.04 31.656 48.496C32.2 47.952 32.84 47.68 33.576 47.68H40.44C40.696 47.68 40.824 47.552 40.824 47.296C40.824 47.008 40.84 46.544 40.872 45.904C40.936 45.264 40.984 44.784 41.016 44.464C41.016 44.208 40.888 44.08 40.632 44.08H35.016C34.28 44.08 33.64 43.808 33.096 43.264C32.552 42.72 32.28 42.08 32.28 41.344V39.136C32.28 38.4 32.552 37.76 33.096 37.216C33.64 36.672 34.28 36.4 35.016 36.4H41.112C41.4 36.4 41.544 36.272 41.544 36.016L41.688 34.288C41.72 33.52 42.024 32.88 42.6 32.368C43.176 31.856 43.848 31.616 44.616 31.648L48.264 31.792C49 31.824 49.608 32.112 50.088 32.656C50.6 33.2 50.84 33.84 50.808 34.576L50.664 36.016C50.664 36.272 50.792 36.4 51.048 36.4H63.144C63.88 36.4 64.52 36.672 65.064 37.216C65.608 37.76 65.88 38.4 65.88 39.136V41.344C65.88 42.08 65.608 42.72 65.064 43.264C64.52 43.808 63.88 44.08 63.144 44.08H50.568C50.28 44.08 50.136 44.208 50.136 44.464C50.104 45.104 50.056 46.032 49.992 47.248C49.992 47.536 50.12 47.68 50.376 47.68H59.304C60.04 47.68 60.68 47.952 61.224 48.496C61.768 49.04 62.04 49.68 62.04 50.416V52.624C62.04 53.36 61.768 54 61.224 54.544C60.68 55.088 60.04 55.36 59.304 55.36H50.04C49.752 55.36 49.608 55.488 49.608 55.744C49.576 56.768 49.56 58.16 49.56 59.92C49.56 62.224 49.912 63.68 50.616 64.288C51.352 64.896 53.08 65.2 55.8 65.2C58.104 65.2 59.784 65.088 60.84 64.864C61.896 64.608 62.6 64.224 62.952 63.712C63.304 63.168 63.48 62.304 63.48 61.12C63.48 60.832 63.432 60.368 63.336 59.728C63.208 58.96 63.336 58.256 63.72 57.616C64.104 56.976 64.664 56.576 65.4 56.416L68.52 55.744C69.256 55.584 69.928 55.712 70.536 56.128C71.176 56.512 71.56 57.072 71.688 57.808Z" fill="white"/>
</svg>
