<svg width="236" height="50" viewBox="0 0 236 50" fill="none" xmlns="http://www.w3.org/2000/svg">
<g filter="url(#filter0_d)">
<path d="M28.7637 10.56C31.5157 10.56 33.5157 11.312 34.7637 12.816C36.0437 14.288 36.6837 16.736 36.6837 20.16V33.264C36.6837 34 36.4117 34.64 35.8677 35.184C35.3237 35.728 34.6837 36 33.9477 36H30.5397C29.8037 36 29.1637 35.728 28.6197 35.184C28.1077 34.64 27.8517 34 27.8517 33.264V20.16C27.8517 19.072 27.6917 18.336 27.3717 17.952C27.0517 17.568 26.4757 17.376 25.6437 17.376C25.0037 17.376 24.3957 17.584 23.8197 18C23.2757 18.416 23.0037 18.816 23.0037 19.2V33.264C23.0037 34 22.7317 34.64 22.1877 35.184C21.6437 35.728 21.0037 36 20.2677 36H16.8597C16.1237 36 15.4837 35.728 14.9397 35.184C14.4277 34.64 14.1717 34 14.1717 33.264V20.16C14.1717 19.072 14.0117 18.336 13.6917 17.952C13.3717 17.568 12.7957 17.376 11.9637 17.376C11.3237 17.376 10.7157 17.584 10.1397 18C9.59569 18.416 9.32369 18.816 9.32369 19.2V33.264C9.32369 34 9.05169 34.64 8.50769 35.184C7.96369 35.728 7.32369 36 6.58769 36H2.93969C2.20369 36 1.56369 35.728 1.01969 35.184C0.475688 34.64 0.203688 34 0.203688 33.264V13.776C0.203688 13.04 0.475688 12.4 1.01969 11.856C1.56369 11.312 2.20369 11.04 2.93969 11.04H5.86769C6.63569 11.04 7.29169 11.312 7.83569 11.856C8.37969 12.368 8.68369 13.008 8.74769 13.776L8.79569 14.352C8.79569 14.384 8.81169 14.4 8.84369 14.4C8.90769 14.4 8.93969 14.384 8.93969 14.352C9.80369 13.168 10.8277 12.24 12.0117 11.568C13.2277 10.896 14.4117 10.56 15.5637 10.56C17.0357 10.56 18.2037 10.816 19.0677 11.328C19.9637 11.84 20.8117 12.768 21.6117 14.112C21.6117 14.144 21.6277 14.16 21.6597 14.16C21.7237 14.16 21.7717 14.144 21.8037 14.112C24.1717 11.744 26.4917 10.56 28.7637 10.56ZM50.8369 28.752C51.4449 29.744 52.4209 30.24 53.7649 30.24C55.1089 30.24 56.0849 29.744 56.6929 28.752C57.3009 27.728 57.6049 25.984 57.6049 23.52C57.6049 21.056 57.3009 19.328 56.6929 18.336C56.0849 17.312 55.1089 16.8 53.7649 16.8C52.4209 16.8 51.4449 17.312 50.8369 18.336C50.2289 19.328 49.9249 21.056 49.9249 23.52C49.9249 25.984 50.2289 27.728 50.8369 28.752ZM44.2129 14.016C46.4849 11.712 49.6689 10.56 53.7649 10.56C57.8609 10.56 61.0449 11.712 63.3169 14.016C65.5889 16.288 66.7249 19.456 66.7249 23.52C66.7249 27.584 65.5889 30.768 63.3169 33.072C61.0449 35.344 57.8609 36.48 53.7649 36.48C49.6689 36.48 46.4849 35.344 44.2129 33.072C41.9409 30.768 40.8049 27.584 40.8049 23.52C40.8049 19.456 41.9409 16.288 44.2129 14.016ZM86.6674 25.2V21.12C86.6674 20 86.2994 19.088 85.5634 18.384C84.8274 17.648 83.9154 17.28 82.8274 17.28C80.2674 17.28 78.9874 19.2 78.9874 23.04C78.9874 24.864 79.3234 26.24 79.9954 27.168C80.6994 28.096 81.6434 28.56 82.8274 28.56C83.8834 28.56 84.7794 28.224 85.5154 27.552C86.2834 26.88 86.6674 26.096 86.6674 25.2ZM92.8114 11.04C93.5474 11.04 94.1874 11.312 94.7314 11.856C95.2754 12.4 95.5474 13.04 95.5474 13.776V33.6C95.5474 37.888 94.2354 41.2 91.6114 43.536C89.0194 45.872 85.3714 47.04 80.6674 47.04C78.8434 47.04 77.0194 46.896 75.1954 46.608C74.4274 46.48 73.7874 46.096 73.2754 45.456C72.7634 44.848 72.5074 44.144 72.5074 43.344V41.376C72.5074 40.704 72.7634 40.176 73.2754 39.792C73.8194 39.44 74.4274 39.344 75.0994 39.504C76.5394 39.888 78.2354 40.08 80.1874 40.08C82.4274 40.08 84.0594 39.584 85.0834 38.592C86.1394 37.6 86.6674 35.936 86.6674 33.6V32.4C86.6674 32.368 86.6514 32.352 86.6194 32.352C86.5554 32.352 86.5234 32.368 86.5234 32.4C84.7954 34.32 82.5234 35.28 79.7074 35.28C76.9234 35.28 74.6194 34.192 72.7954 32.016C71.0034 29.808 70.1074 26.816 70.1074 23.04C70.1074 19.072 70.9714 16 72.6994 13.824C74.4594 11.648 76.7954 10.56 79.7074 10.56C82.4914 10.56 84.8594 11.76 86.8114 14.16C86.8434 14.192 86.8754 14.208 86.9074 14.208C86.9394 14.208 86.9554 14.192 86.9554 14.16V13.776C86.9874 13.008 87.2754 12.368 87.8194 11.856C88.3634 11.312 89.0194 11.04 89.7874 11.04H92.8114ZM115.274 25.92V25.632C115.274 25.344 115.13 25.2 114.842 25.2H113.354C110.154 25.2 108.554 26.16 108.554 28.08C108.554 29.52 109.354 30.24 110.954 30.24C112.202 30.24 113.226 29.856 114.026 29.088C114.858 28.288 115.274 27.232 115.274 25.92ZM112.394 10.56C116.618 10.56 119.674 11.328 121.562 12.864C123.45 14.4 124.394 16.832 124.394 20.16V33.264C124.394 34 124.122 34.64 123.578 35.184C123.034 35.728 122.394 36 121.658 36H118.634C117.866 36 117.21 35.744 116.666 35.232C116.122 34.688 115.834 34.032 115.802 33.264V32.88C115.802 32.848 115.786 32.832 115.754 32.832C115.722 32.832 115.69 32.848 115.658 32.88C113.61 35.28 111.082 36.48 108.074 36.48C105.834 36.48 103.994 35.776 102.554 34.368C101.114 32.928 100.394 31.072 100.394 28.8C100.394 23.04 104.714 20.16 113.354 20.16H114.842C115.13 20.16 115.274 20.016 115.274 19.728V19.68C115.274 17.76 114.154 16.8 111.914 16.8C109.994 16.8 107.514 17.088 104.474 17.664C103.802 17.792 103.194 17.648 102.65 17.232C102.106 16.784 101.834 16.208 101.834 15.504V14.736C101.834 13.936 102.074 13.216 102.554 12.576C103.066 11.936 103.706 11.552 104.474 11.424C107.642 10.848 110.282 10.56 112.394 10.56ZM158.748 10.56C161.5 10.56 163.5 11.312 164.748 12.816C166.028 14.288 166.668 16.736 166.668 20.16V33.264C166.668 34 166.396 34.64 165.852 35.184C165.308 35.728 164.668 36 163.932 36H160.524C159.788 36 159.148 35.728 158.604 35.184C158.092 34.64 157.836 34 157.836 33.264V20.16C157.836 19.072 157.676 18.336 157.356 17.952C157.036 17.568 156.46 17.376 155.628 17.376C154.988 17.376 154.38 17.584 153.804 18C153.26 18.416 152.988 18.816 152.988 19.2V33.264C152.988 34 152.716 34.64 152.172 35.184C151.628 35.728 150.988 36 150.252 36H146.844C146.108 36 145.468 35.728 144.924 35.184C144.412 34.64 144.156 34 144.156 33.264V20.16C144.156 19.072 143.996 18.336 143.676 17.952C143.356 17.568 142.78 17.376 141.948 17.376C141.308 17.376 140.7 17.584 140.124 18C139.58 18.416 139.308 18.816 139.308 19.2V33.264C139.308 34 139.036 34.64 138.492 35.184C137.948 35.728 137.308 36 136.572 36H132.924C132.188 36 131.548 35.728 131.004 35.184C130.46 34.64 130.188 34 130.188 33.264V13.776C130.188 13.04 130.46 12.4 131.004 11.856C131.548 11.312 132.188 11.04 132.924 11.04H135.852C136.62 11.04 137.276 11.312 137.82 11.856C138.364 12.368 138.668 13.008 138.732 13.776L138.78 14.352C138.78 14.384 138.796 14.4 138.828 14.4C138.892 14.4 138.924 14.384 138.924 14.352C139.788 13.168 140.812 12.24 141.996 11.568C143.212 10.896 144.396 10.56 145.548 10.56C147.02 10.56 148.188 10.816 149.052 11.328C149.948 11.84 150.796 12.768 151.596 14.112C151.596 14.144 151.612 14.16 151.644 14.16C151.708 14.16 151.756 14.144 151.788 14.112C154.156 11.744 156.476 10.56 158.748 10.56ZM181.253 25.92C181.989 25.92 182.629 26.192 183.173 26.736C183.717 27.28 183.989 27.92 183.989 28.656V33.264C183.989 34 183.717 34.64 183.173 35.184C182.629 35.728 181.989 36 181.253 36H176.165C175.429 36 174.789 35.728 174.245 35.184C173.701 34.64 173.429 34 173.429 33.264V28.656C173.429 27.92 173.701 27.28 174.245 26.736C174.789 26.192 175.429 25.92 176.165 25.92H181.253ZM198.809 11.04C199.545 11.04 200.185 11.312 200.729 11.856C201.273 12.4 201.545 13.04 201.545 13.776V33.264C201.545 34 201.273 34.64 200.729 35.184C200.185 35.728 199.545 36 198.809 36H194.681C193.945 36 193.305 35.728 192.761 35.184C192.217 34.64 191.945 34 191.945 33.264V13.776C191.945 13.04 192.217 12.4 192.761 11.856C193.305 11.312 193.945 11.04 194.681 11.04H198.809ZM198.809 -2.86102e-06C199.545 -2.86102e-06 200.185 0.271997 200.729 0.815998C201.273 1.36 201.545 2 201.545 2.736V3.984C201.545 4.72 201.273 5.36 200.729 5.904C200.185 6.448 199.545 6.72 198.809 6.72H194.681C193.945 6.72 193.305 6.448 192.761 5.904C192.217 5.36 191.945 4.72 191.945 3.984V2.736C191.945 2 192.217 1.36 192.761 0.815998C193.305 0.271997 193.945 -2.86102e-06 194.681 -2.86102e-06H198.809ZM217.539 14.16C219.523 11.76 221.971 10.56 224.883 10.56C227.795 10.56 229.875 11.392 231.123 13.056C232.403 14.72 233.043 17.568 233.043 21.6V33.264C233.043 34 232.771 34.64 232.227 35.184C231.683 35.728 231.043 36 230.307 36H226.899C226.163 36 225.523 35.728 224.979 35.184C224.435 34.64 224.163 34 224.163 33.264V21.6C224.163 20.128 223.955 19.12 223.539 18.576C223.123 18.032 222.371 17.76 221.283 17.76C220.387 17.76 219.555 18.112 218.787 18.816C218.051 19.52 217.683 20.288 217.683 21.12V33.264C217.683 34 217.411 34.64 216.867 35.184C216.323 35.728 215.683 36 214.947 36H211.299C210.563 36 209.923 35.728 209.379 35.184C208.835 34.64 208.563 34 208.563 33.264V13.776C208.563 13.04 208.835 12.4 209.379 11.856C209.923 11.312 210.563 11.04 211.299 11.04H214.563C215.331 11.04 215.987 11.312 216.531 11.856C217.075 12.368 217.363 13.008 217.395 13.776V14.16C217.395 14.192 217.411 14.208 217.443 14.208C217.507 14.208 217.539 14.192 217.539 14.16Z" fill="#20C0FB"/>
</g>
<defs>
<filter id="filter0_d" x="0.203735" y="0" width="234.839" height="49.04" filterUnits="userSpaceOnUse" color-interpolation-filters="sRGB">
<feFlood flood-opacity="0" result="BackgroundImageFix"/>
<feColorMatrix in="SourceAlpha" type="matrix" values="0 0 0 0 0 0 0 0 0 0 0 0 0 0 0 0 0 0 127 0"/>
<feOffset dx="2" dy="2"/>
<feColorMatrix type="matrix" values="0 0 0 0 0.898039 0 0 0 0 0.898039 0 0 0 0 0.898039 0 0 0 1 0"/>
<feBlend mode="normal" in2="BackgroundImageFix" result="effect1_dropShadow"/>
<feBlend mode="normal" in="SourceGraphic" in2="effect1_dropShadow" result="shape"/>
</filter>
</defs>
</svg>
