<?xml version="1.0" standalone="no"?>
<!DOCTYPE svg PUBLIC "-//W3C//DTD SVG 20010904//EN"
 "http://www.w3.org/TR/2001/REC-SVG-20010904/DTD/svg10.dtd">
<svg version="1.0" xmlns="http://www.w3.org/2000/svg"
 width="260.000000pt" height="260.000000pt" viewBox="0 0 260.000000 260.000000"
 preserveAspectRatio="xMidYMid meet">
<metadata>
Created by potrace 1.14, written by Peter Selinger 2001-2017
</metadata>
<g transform="translate(0.000000,260.000000) scale(0.100000,-0.100000)"
fill="#000000" stroke="none">
<path d="M1198 2594 c-3 -2 -22 -6 -44 -8 -92 -9 -254 -58 -359 -107 -213 -99
-438 -303 -546 -494 -32 -57 -83 -158 -85 -170 -1 -5 -9 -27 -18 -48 -42 -97
-68 -239 -71 -392 -4 -130 0 -178 19 -291 18 -100 75 -254 133 -357 18 -33 33
-63 33 -68 0 -5 -50 -134 -111 -286 -61 -153 -120 -299 -130 -325 l-19 -48 48
19 c258 102 311 124 337 135 17 7 85 35 151 61 l122 48 113 -56 c197 -97 378
-138 589 -132 155 5 177 8 295 39 258 69 469 203 656 416 34 39 123 179 158
247 140 279 167 613 74 932 -47 166 -166 367 -299 506 -169 178 -418 311 -684
366 -52 11 -354 22 -362 13z"/>
</g>
</svg>
